<mxfile host="app.diagrams.net" modified="2023-12-13T02:06:35.360Z" agent="Mozilla/5.0 (Windows NT 10.0; Win64; x64) AppleWebKit/537.36 (KHTML, like Gecko) Chrome/120.0.0.0 Safari/537.36 Edg/120.0.0.0" etag="a6vsGJvpsFmr8zozxzAw" version="22.1.8" type="github">
  <diagram name="Page-1" id="a9-peQuEWzB-d9BPS3GN">
    <mxGraphModel dx="1002" dy="3869" grid="1" gridSize="10" guides="1" tooltips="1" connect="1" arrows="1" fold="1" page="1" pageScale="1" pageWidth="850" pageHeight="1100" math="0" shadow="0">
      <root>
        <mxCell id="0" />
        <mxCell id="1" parent="0" />
        <mxCell id="A1t0_cSj_-tiJU0iEIxF-1" value="" style="strokeWidth=1;shadow=0;dashed=0;align=center;html=1;shape=mxgraph.mockup.containers.browserWindow;rSize=0;strokeColor=#666666;strokeColor2=#008cff;strokeColor3=#c4c4c4;mainText=,;recursiveResize=0;" vertex="1" parent="1">
          <mxGeometry x="40" y="-2140" width="750" height="450" as="geometry" />
        </mxCell>
        <mxCell id="A1t0_cSj_-tiJU0iEIxF-2" value="&lt;p&gt;&lt;font style=&quot;font-size: 12px;&quot;&gt;Precious Flowers&lt;/font&gt;&lt;/p&gt;" style="strokeWidth=1;shadow=0;dashed=0;align=center;html=1;shape=mxgraph.mockup.containers.anchor;fontSize=17;fontColor=#666666;align=left;whiteSpace=wrap;" vertex="1" parent="A1t0_cSj_-tiJU0iEIxF-1">
          <mxGeometry x="60" y="12" width="140" height="26" as="geometry" />
        </mxCell>
        <mxCell id="A1t0_cSj_-tiJU0iEIxF-3" value="https://www.Precious-Flowers.com" style="strokeWidth=1;shadow=0;dashed=0;align=center;html=1;shape=mxgraph.mockup.containers.anchor;rSize=0;fontSize=17;fontColor=#666666;align=left;" vertex="1" parent="A1t0_cSj_-tiJU0iEIxF-1">
          <mxGeometry x="130" y="60" width="250" height="26" as="geometry" />
        </mxCell>
        <mxCell id="A1t0_cSj_-tiJU0iEIxF-7" value="" style="strokeWidth=1;shadow=0;dashed=0;align=center;html=1;shape=mxgraph.mockup.text.rrect;rSize=0;strokeColor=#666666;" vertex="1" parent="A1t0_cSj_-tiJU0iEIxF-1">
          <mxGeometry x="370" y="110" width="380" height="25" as="geometry" />
        </mxCell>
        <mxCell id="A1t0_cSj_-tiJU0iEIxF-8" value="About" style="strokeColor=inherit;fillColor=inherit;gradientColor=inherit;strokeWidth=1;shadow=0;dashed=0;align=center;html=1;shape=mxgraph.mockup.text.rrect;rSize=0;fontSize=17;fontColor=#0000ff;whiteSpace=wrap;" vertex="1" parent="A1t0_cSj_-tiJU0iEIxF-7">
          <mxGeometry x="95" width="95" height="25" as="geometry" />
        </mxCell>
        <mxCell id="A1t0_cSj_-tiJU0iEIxF-9" value="Portfolio" style="strokeColor=inherit;fillColor=inherit;gradientColor=inherit;strokeWidth=1;shadow=0;dashed=0;align=center;html=1;shape=mxgraph.mockup.text.rrect;rSize=0;fontSize=17;fontColor=#0000ff;whiteSpace=wrap;" vertex="1" parent="A1t0_cSj_-tiJU0iEIxF-7">
          <mxGeometry x="190" width="95" height="25" as="geometry" />
        </mxCell>
        <mxCell id="A1t0_cSj_-tiJU0iEIxF-10" value="Contact" style="strokeColor=inherit;fillColor=inherit;gradientColor=inherit;strokeWidth=1;shadow=0;dashed=0;align=center;html=1;shape=mxgraph.mockup.text.rrect;rSize=0;fontSize=17;fontColor=#0000ff;whiteSpace=wrap;" vertex="1" parent="A1t0_cSj_-tiJU0iEIxF-7">
          <mxGeometry x="285" width="95" height="25" as="geometry" />
        </mxCell>
        <mxCell id="A1t0_cSj_-tiJU0iEIxF-11" value="Home" style="strokeWidth=1;shadow=0;dashed=0;align=center;html=1;shape=mxgraph.mockup.text.rrect;rSize=0;fontSize=17;fontColor=#ffffff;fillColor=#d80073;strokeColor=#A50040;whiteSpace=wrap;" vertex="1" parent="A1t0_cSj_-tiJU0iEIxF-7">
          <mxGeometry width="95" height="25" as="geometry" />
        </mxCell>
        <mxCell id="A1t0_cSj_-tiJU0iEIxF-13" value="" style="verticalLabelPosition=bottom;shadow=0;dashed=0;align=center;html=1;verticalAlign=top;strokeWidth=1;shape=mxgraph.mockup.graphics.simpleIcon;strokeColor=#999999;" vertex="1" parent="A1t0_cSj_-tiJU0iEIxF-1">
          <mxGeometry x="40" y="110" width="240" height="50" as="geometry" />
        </mxCell>
        <mxCell id="A1t0_cSj_-tiJU0iEIxF-14" value="Logo" style="text;html=1;strokeColor=none;fillColor=none;align=center;verticalAlign=middle;whiteSpace=wrap;rounded=0;" vertex="1" parent="A1t0_cSj_-tiJU0iEIxF-1">
          <mxGeometry x="130" y="107.5" width="60" height="30" as="geometry" />
        </mxCell>
        <mxCell id="A1t0_cSj_-tiJU0iEIxF-15" value="" style="rounded=0;whiteSpace=wrap;html=1;fillColor=#647687;strokeColor=#314354;fontColor=#ffffff;" vertex="1" parent="A1t0_cSj_-tiJU0iEIxF-1">
          <mxGeometry y="410" width="750" height="40" as="geometry" />
        </mxCell>
        <mxCell id="A1t0_cSj_-tiJU0iEIxF-16" value="Footer" style="text;html=1;strokeColor=none;fillColor=none;align=center;verticalAlign=middle;whiteSpace=wrap;rounded=0;" vertex="1" parent="A1t0_cSj_-tiJU0iEIxF-1">
          <mxGeometry x="340" y="415" width="60" height="30" as="geometry" />
        </mxCell>
        <mxCell id="A1t0_cSj_-tiJU0iEIxF-18" value="" style="whiteSpace=wrap;html=1;aspect=fixed;" vertex="1" parent="A1t0_cSj_-tiJU0iEIxF-1">
          <mxGeometry x="260" y="180" width="205" height="205" as="geometry" />
        </mxCell>
        <mxCell id="A1t0_cSj_-tiJU0iEIxF-20" value="" style="verticalLabelPosition=bottom;shadow=0;dashed=0;align=center;html=1;verticalAlign=top;strokeWidth=1;shape=mxgraph.mockup.containers.userFemale;strokeColor=#666666;strokeColor2=#008cff;" vertex="1" parent="A1t0_cSj_-tiJU0iEIxF-1">
          <mxGeometry x="312.5" y="280" width="100" height="100" as="geometry" />
        </mxCell>
        <mxCell id="A1t0_cSj_-tiJU0iEIxF-22" value="&lt;div style=&quot;text-align: center;&quot;&gt;&lt;span style=&quot;background-color: initial;&quot;&gt;eiusmod tempor incididunt ut labore et dolore magna aliqua. Ut enim ad minim veniam,&amp;nbsp;&lt;/span&gt;&lt;/div&gt;" style="text;spacingTop=-5;whiteSpace=wrap;html=1;align=left;fontSize=12;fontFamily=Helvetica;fillColor=none;strokeColor=none;" vertex="1" parent="A1t0_cSj_-tiJU0iEIxF-1">
          <mxGeometry x="282.5" y="197.5" width="160" height="55" as="geometry" />
        </mxCell>
        <mxCell id="A1t0_cSj_-tiJU0iEIxF-4" value="&lt;h1&gt;Home Page&lt;/h1&gt;" style="text;html=1;align=center;verticalAlign=middle;resizable=0;points=[];autosize=1;strokeColor=none;fillColor=none;" vertex="1" parent="1">
          <mxGeometry x="350" y="-2210" width="150" height="70" as="geometry" />
        </mxCell>
        <mxCell id="A1t0_cSj_-tiJU0iEIxF-23" value="&lt;h1&gt;About Page&lt;/h1&gt;" style="text;html=1;strokeColor=none;fillColor=none;align=center;verticalAlign=middle;whiteSpace=wrap;rounded=0;" vertex="1" parent="1">
          <mxGeometry x="330" y="-1630" width="150" height="30" as="geometry" />
        </mxCell>
        <mxCell id="A1t0_cSj_-tiJU0iEIxF-24" value="" style="strokeWidth=1;shadow=0;dashed=0;align=center;html=1;shape=mxgraph.mockup.containers.browserWindow;rSize=0;strokeColor2=#008cff;strokeColor3=#c4c4c4;mainText=,;recursiveResize=0;" vertex="1" parent="1">
          <mxGeometry x="40" y="-1570" width="750" height="470" as="geometry" />
        </mxCell>
        <mxCell id="A1t0_cSj_-tiJU0iEIxF-25" value="&lt;p&gt;&lt;font style=&quot;font-size: 12px;&quot;&gt;Precious Flowers&lt;/font&gt;&lt;/p&gt;" style="strokeWidth=1;shadow=0;dashed=0;align=center;html=1;shape=mxgraph.mockup.containers.anchor;fontSize=17;fontColor=#666666;align=left;whiteSpace=wrap;" vertex="1" parent="A1t0_cSj_-tiJU0iEIxF-24">
          <mxGeometry x="60" y="12" width="140" height="26" as="geometry" />
        </mxCell>
        <mxCell id="A1t0_cSj_-tiJU0iEIxF-26" value="https://www.Precious-Flowers.com" style="strokeWidth=1;shadow=0;dashed=0;align=center;html=1;shape=mxgraph.mockup.containers.anchor;rSize=0;fontSize=17;fontColor=#666666;align=left;" vertex="1" parent="A1t0_cSj_-tiJU0iEIxF-24">
          <mxGeometry x="130" y="60" width="250" height="26" as="geometry" />
        </mxCell>
        <mxCell id="A1t0_cSj_-tiJU0iEIxF-27" value="" style="strokeWidth=1;shadow=0;dashed=0;align=center;html=1;shape=mxgraph.mockup.text.rrect;rSize=0;" vertex="1" parent="A1t0_cSj_-tiJU0iEIxF-24">
          <mxGeometry x="370" y="110" width="380" height="25" as="geometry" />
        </mxCell>
        <mxCell id="A1t0_cSj_-tiJU0iEIxF-28" value="About" style="strokeColor=#A50040;fillColor=#d80073;strokeWidth=1;shadow=0;dashed=0;align=center;html=1;shape=mxgraph.mockup.text.rrect;rSize=0;fontSize=17;whiteSpace=wrap;fontColor=#ffffff;" vertex="1" parent="A1t0_cSj_-tiJU0iEIxF-27">
          <mxGeometry x="90" width="110" height="25" as="geometry" />
        </mxCell>
        <mxCell id="A1t0_cSj_-tiJU0iEIxF-29" value="Portfolio" style="strokeColor=inherit;fillColor=inherit;gradientColor=inherit;strokeWidth=1;shadow=0;dashed=0;align=center;html=1;shape=mxgraph.mockup.text.rrect;rSize=0;fontSize=17;fontColor=#0000ff;whiteSpace=wrap;" vertex="1" parent="A1t0_cSj_-tiJU0iEIxF-27">
          <mxGeometry x="190" width="95" height="25" as="geometry" />
        </mxCell>
        <mxCell id="A1t0_cSj_-tiJU0iEIxF-30" value="Contact" style="strokeColor=inherit;fillColor=inherit;gradientColor=inherit;strokeWidth=1;shadow=0;dashed=0;align=center;html=1;shape=mxgraph.mockup.text.rrect;rSize=0;fontSize=17;fontColor=#0000ff;whiteSpace=wrap;" vertex="1" parent="A1t0_cSj_-tiJU0iEIxF-27">
          <mxGeometry x="285" width="95" height="25" as="geometry" />
        </mxCell>
        <mxCell id="A1t0_cSj_-tiJU0iEIxF-31" value="Home" style="strokeWidth=1;shadow=0;dashed=0;align=center;html=1;shape=mxgraph.mockup.text.rrect;rSize=0;fontSize=17;whiteSpace=wrap;" vertex="1" parent="A1t0_cSj_-tiJU0iEIxF-27">
          <mxGeometry width="95" height="25" as="geometry" />
        </mxCell>
        <mxCell id="A1t0_cSj_-tiJU0iEIxF-33" value="" style="verticalLabelPosition=bottom;shadow=0;dashed=0;align=center;html=1;verticalAlign=top;strokeWidth=1;shape=mxgraph.mockup.graphics.simpleIcon;strokeColor=#999999;" vertex="1" parent="A1t0_cSj_-tiJU0iEIxF-24">
          <mxGeometry x="40" y="110" width="240" height="50" as="geometry" />
        </mxCell>
        <mxCell id="A1t0_cSj_-tiJU0iEIxF-34" value="Logo" style="text;html=1;strokeColor=none;fillColor=none;align=center;verticalAlign=middle;whiteSpace=wrap;rounded=0;" vertex="1" parent="A1t0_cSj_-tiJU0iEIxF-24">
          <mxGeometry x="130" y="107.5" width="60" height="30" as="geometry" />
        </mxCell>
        <mxCell id="A1t0_cSj_-tiJU0iEIxF-35" value="" style="rounded=0;whiteSpace=wrap;html=1;fillColor=#647687;fontColor=#ffffff;strokeColor=#314354;" vertex="1" parent="A1t0_cSj_-tiJU0iEIxF-24">
          <mxGeometry y="410" width="750" height="40" as="geometry" />
        </mxCell>
        <mxCell id="A1t0_cSj_-tiJU0iEIxF-36" value="Footer" style="text;html=1;strokeColor=none;fillColor=none;align=center;verticalAlign=middle;whiteSpace=wrap;rounded=0;" vertex="1" parent="A1t0_cSj_-tiJU0iEIxF-24">
          <mxGeometry x="340" y="415" width="60" height="30" as="geometry" />
        </mxCell>
        <mxCell id="A1t0_cSj_-tiJU0iEIxF-72" value="" style="rounded=1;whiteSpace=wrap;html=1;" vertex="1" parent="A1t0_cSj_-tiJU0iEIxF-24">
          <mxGeometry x="155" y="170" width="430" height="210" as="geometry" />
        </mxCell>
        <mxCell id="A1t0_cSj_-tiJU0iEIxF-73" value="a non numquam eius modi tempora incidunt ut labore et dolore magnam aliquam quaerat voluptatem. Ut enim ad minima veniam, quis nostrum exercitationem ullam corporis suscipit laboriosam, nisi ut aliquid ex ea commodi consequatur? Quis autem vel eum iure reprehenderit qui in ea voluptate velit esse quam nihil molestiae consequatur, vel illum qui dolorem eum fugiat quo voluptas nulla pariatur?" style="text;spacingTop=-5;whiteSpace=wrap;html=1;align=left;fontSize=12;fontFamily=Helvetica;fillColor=none;strokeColor=none;" vertex="1" parent="A1t0_cSj_-tiJU0iEIxF-24">
          <mxGeometry x="165" y="185" width="415" height="55" as="geometry" />
        </mxCell>
        <mxCell id="A1t0_cSj_-tiJU0iEIxF-74" value="&lt;font style=&quot;font-size: 10px;&quot;&gt;Show More&lt;/font&gt;" style="strokeWidth=1;shadow=0;dashed=0;align=center;html=1;shape=mxgraph.mockup.buttons.button;strokeColor=#666666;fontColor=#ffffff;mainText=;buttonStyle=round;fontSize=17;fontStyle=1;fillColor=#008cff;whiteSpace=wrap;" vertex="1" parent="A1t0_cSj_-tiJU0iEIxF-24">
          <mxGeometry x="165" y="280" width="60" height="10" as="geometry" />
        </mxCell>
        <mxCell id="A1t0_cSj_-tiJU0iEIxF-75" value="Lorem ipsum dolor sit amet, consectetur adi, quis nostrud exercitation ullamco laboris nisi ut aliquip ex ea commodo consequat. Duis aute irure dolor in reprehenderit in voluptate velit esse cillum dolore eu fugiat nulla pariatur. Excepteur sint occaecat cupidatat non proident, sunt in culpa qui officia deserunt mollit anim id est laborum." style="text;spacingTop=-5;whiteSpace=wrap;html=1;align=left;fontSize=12;fontFamily=Helvetica;fillColor=none;strokeColor=none;" vertex="1" parent="A1t0_cSj_-tiJU0iEIxF-24">
          <mxGeometry x="165" y="300" width="385" height="50" as="geometry" />
        </mxCell>
        <mxCell id="A1t0_cSj_-tiJU0iEIxF-40" value="&lt;h1&gt;Portfolio Page&lt;/h1&gt;" style="text;html=1;strokeColor=none;fillColor=none;align=center;verticalAlign=middle;whiteSpace=wrap;rounded=0;" vertex="1" parent="1">
          <mxGeometry x="333" y="-1080" width="185" height="30" as="geometry" />
        </mxCell>
        <mxCell id="A1t0_cSj_-tiJU0iEIxF-41" value="" style="strokeWidth=1;shadow=0;dashed=0;align=center;html=1;shape=mxgraph.mockup.containers.browserWindow;rSize=0;strokeColor2=#008cff;strokeColor3=#c4c4c4;mainText=,;recursiveResize=0;" vertex="1" parent="1">
          <mxGeometry x="40" y="-1030" width="750" height="450" as="geometry" />
        </mxCell>
        <mxCell id="A1t0_cSj_-tiJU0iEIxF-42" value="&lt;p&gt;&lt;font style=&quot;font-size: 12px;&quot;&gt;Precious Flowers&lt;/font&gt;&lt;/p&gt;" style="strokeWidth=1;shadow=0;dashed=0;align=center;html=1;shape=mxgraph.mockup.containers.anchor;fontSize=17;fontColor=#666666;align=left;whiteSpace=wrap;" vertex="1" parent="A1t0_cSj_-tiJU0iEIxF-41">
          <mxGeometry x="60" y="12" width="140" height="26" as="geometry" />
        </mxCell>
        <mxCell id="A1t0_cSj_-tiJU0iEIxF-43" value="https://www.Precious-Flowers.com" style="strokeWidth=1;shadow=0;dashed=0;align=center;html=1;shape=mxgraph.mockup.containers.anchor;rSize=0;fontSize=17;fontColor=#666666;align=left;" vertex="1" parent="A1t0_cSj_-tiJU0iEIxF-41">
          <mxGeometry x="130" y="60" width="250" height="26" as="geometry" />
        </mxCell>
        <mxCell id="A1t0_cSj_-tiJU0iEIxF-44" value="" style="strokeWidth=1;shadow=0;dashed=0;align=center;html=1;shape=mxgraph.mockup.text.rrect;rSize=0;" vertex="1" parent="A1t0_cSj_-tiJU0iEIxF-41">
          <mxGeometry x="370" y="110" width="380" height="25" as="geometry" />
        </mxCell>
        <mxCell id="A1t0_cSj_-tiJU0iEIxF-45" value="About" style="strokeWidth=1;shadow=0;dashed=0;align=center;html=1;shape=mxgraph.mockup.text.rrect;rSize=0;fontSize=17;whiteSpace=wrap;" vertex="1" parent="A1t0_cSj_-tiJU0iEIxF-44">
          <mxGeometry x="90" width="110" height="25" as="geometry" />
        </mxCell>
        <mxCell id="A1t0_cSj_-tiJU0iEIxF-46" value="Portfolio" style="strokeWidth=1;shadow=0;dashed=0;align=center;html=1;shape=mxgraph.mockup.text.rrect;rSize=0;fontSize=17;whiteSpace=wrap;fillColor=#d80073;fontColor=#ffffff;strokeColor=#A50040;" vertex="1" parent="A1t0_cSj_-tiJU0iEIxF-44">
          <mxGeometry x="190" width="95" height="25" as="geometry" />
        </mxCell>
        <mxCell id="A1t0_cSj_-tiJU0iEIxF-47" value="Contact" style="strokeWidth=1;shadow=0;dashed=0;align=center;html=1;shape=mxgraph.mockup.text.rrect;rSize=0;fontSize=17;whiteSpace=wrap;" vertex="1" parent="A1t0_cSj_-tiJU0iEIxF-44">
          <mxGeometry x="285" width="95" height="25" as="geometry" />
        </mxCell>
        <mxCell id="A1t0_cSj_-tiJU0iEIxF-48" value="Home" style="strokeWidth=1;shadow=0;dashed=0;align=center;html=1;shape=mxgraph.mockup.text.rrect;rSize=0;fontSize=17;whiteSpace=wrap;" vertex="1" parent="A1t0_cSj_-tiJU0iEIxF-44">
          <mxGeometry width="95" height="25" as="geometry" />
        </mxCell>
        <mxCell id="A1t0_cSj_-tiJU0iEIxF-49" value="" style="verticalLabelPosition=bottom;shadow=0;dashed=0;align=center;html=1;verticalAlign=top;strokeWidth=1;shape=mxgraph.mockup.graphics.simpleIcon;strokeColor=#999999;" vertex="1" parent="A1t0_cSj_-tiJU0iEIxF-41">
          <mxGeometry x="40" y="110" width="240" height="50" as="geometry" />
        </mxCell>
        <mxCell id="A1t0_cSj_-tiJU0iEIxF-50" value="Logo" style="text;html=1;strokeColor=none;fillColor=none;align=center;verticalAlign=middle;whiteSpace=wrap;rounded=0;" vertex="1" parent="A1t0_cSj_-tiJU0iEIxF-41">
          <mxGeometry x="130" y="107.5" width="60" height="30" as="geometry" />
        </mxCell>
        <mxCell id="A1t0_cSj_-tiJU0iEIxF-51" value="" style="rounded=0;whiteSpace=wrap;html=1;fillColor=#647687;fontColor=#ffffff;strokeColor=#314354;" vertex="1" parent="A1t0_cSj_-tiJU0iEIxF-41">
          <mxGeometry y="410" width="750" height="40" as="geometry" />
        </mxCell>
        <mxCell id="A1t0_cSj_-tiJU0iEIxF-52" value="Footer" style="text;html=1;strokeColor=none;fillColor=none;align=center;verticalAlign=middle;whiteSpace=wrap;rounded=0;" vertex="1" parent="A1t0_cSj_-tiJU0iEIxF-41">
          <mxGeometry x="340" y="415" width="60" height="30" as="geometry" />
        </mxCell>
        <mxCell id="A1t0_cSj_-tiJU0iEIxF-76" value="" style="rounded=1;whiteSpace=wrap;html=1;" vertex="1" parent="A1t0_cSj_-tiJU0iEIxF-41">
          <mxGeometry x="130" y="180" width="480" height="210" as="geometry" />
        </mxCell>
        <mxCell id="A1t0_cSj_-tiJU0iEIxF-77" value="Sed ut perspiciatis unde omnis iste natus error sit voluptatem accusantium doloremque laudantium, totam rem aperiam, eaque ipsa quae ab illo inventore veritatis et quasi architecto beatae vitae dicta sunt explicabo. Nemo enim ipsam voluptatem quia voluptas sit aspernatur aut odit aut fugit, sed quia consequuntur magni dolores eos qui ratione voluptatem sequi nesciunt. Neque porro quisquam est, qui dolorem ipsum quia dolor sit amet, consectetur, adipisci velit, sed quia non numquam eius modi tempora incidunt ut labore et dolore magnam aliquam quaerat voluptatem. Ut enim ad minima veniam, quis nostrum exercitationem ullam corporis suscipit laboriosam, nisi ut aliquid ex ea commodi consequatur? Quis autem vel eum iure reprehenderit qui in ea voluptate velit esse quam nihil molestiae consequatur, vel illum qui dolorem eum fugiat quo voluptas nulla pariatur?" style="text;spacingTop=-5;whiteSpace=wrap;html=1;align=left;fontSize=12;fontFamily=Helvetica;fillColor=none;strokeColor=none;" vertex="1" parent="A1t0_cSj_-tiJU0iEIxF-41">
          <mxGeometry x="140" y="200" width="470" height="90" as="geometry" />
        </mxCell>
        <mxCell id="A1t0_cSj_-tiJU0iEIxF-56" value="&lt;h1&gt;Contact Page&lt;/h1&gt;" style="text;html=1;strokeColor=none;fillColor=none;align=center;verticalAlign=middle;whiteSpace=wrap;rounded=0;" vertex="1" parent="1">
          <mxGeometry x="323" y="-520" width="205" height="30" as="geometry" />
        </mxCell>
        <mxCell id="A1t0_cSj_-tiJU0iEIxF-57" value="" style="strokeWidth=1;shadow=0;dashed=0;align=center;html=1;shape=mxgraph.mockup.containers.browserWindow;rSize=0;strokeColor2=#008cff;strokeColor3=#c4c4c4;mainText=,;recursiveResize=0;" vertex="1" parent="1">
          <mxGeometry x="50" y="-455" width="770" height="485" as="geometry" />
        </mxCell>
        <mxCell id="A1t0_cSj_-tiJU0iEIxF-58" value="&lt;p&gt;&lt;font style=&quot;font-size: 12px;&quot;&gt;Precious Flowers&lt;/font&gt;&lt;/p&gt;" style="strokeWidth=1;shadow=0;dashed=0;align=center;html=1;shape=mxgraph.mockup.containers.anchor;fontSize=17;fontColor=#666666;align=left;whiteSpace=wrap;" vertex="1" parent="A1t0_cSj_-tiJU0iEIxF-57">
          <mxGeometry x="60" y="12" width="140" height="26" as="geometry" />
        </mxCell>
        <mxCell id="A1t0_cSj_-tiJU0iEIxF-59" value="https://www.Precious-Flowers.com" style="strokeWidth=1;shadow=0;dashed=0;align=center;html=1;shape=mxgraph.mockup.containers.anchor;rSize=0;fontSize=17;fontColor=#666666;align=left;" vertex="1" parent="A1t0_cSj_-tiJU0iEIxF-57">
          <mxGeometry x="130" y="60" width="250" height="26" as="geometry" />
        </mxCell>
        <mxCell id="A1t0_cSj_-tiJU0iEIxF-60" value="" style="strokeWidth=1;shadow=0;dashed=0;align=center;html=1;shape=mxgraph.mockup.text.rrect;rSize=0;" vertex="1" parent="A1t0_cSj_-tiJU0iEIxF-57">
          <mxGeometry x="370" y="110" width="380" height="25" as="geometry" />
        </mxCell>
        <mxCell id="A1t0_cSj_-tiJU0iEIxF-61" value="About" style="strokeWidth=1;shadow=0;dashed=0;align=center;html=1;shape=mxgraph.mockup.text.rrect;rSize=0;fontSize=17;whiteSpace=wrap;" vertex="1" parent="A1t0_cSj_-tiJU0iEIxF-60">
          <mxGeometry x="90" width="110" height="25" as="geometry" />
        </mxCell>
        <mxCell id="A1t0_cSj_-tiJU0iEIxF-62" value="Portfolio" style="strokeWidth=1;shadow=0;dashed=0;align=center;html=1;shape=mxgraph.mockup.text.rrect;rSize=0;fontSize=17;whiteSpace=wrap;" vertex="1" parent="A1t0_cSj_-tiJU0iEIxF-60">
          <mxGeometry x="190" width="95" height="25" as="geometry" />
        </mxCell>
        <mxCell id="A1t0_cSj_-tiJU0iEIxF-63" value="Contact" style="strokeWidth=1;shadow=0;dashed=0;align=center;html=1;shape=mxgraph.mockup.text.rrect;rSize=0;fontSize=17;whiteSpace=wrap;fillColor=#d80073;fontColor=#ffffff;strokeColor=#A50040;" vertex="1" parent="A1t0_cSj_-tiJU0iEIxF-60">
          <mxGeometry x="285" width="95" height="25" as="geometry" />
        </mxCell>
        <mxCell id="A1t0_cSj_-tiJU0iEIxF-64" value="Home" style="strokeWidth=1;shadow=0;dashed=0;align=center;html=1;shape=mxgraph.mockup.text.rrect;rSize=0;fontSize=17;whiteSpace=wrap;" vertex="1" parent="A1t0_cSj_-tiJU0iEIxF-60">
          <mxGeometry width="95" height="25" as="geometry" />
        </mxCell>
        <mxCell id="A1t0_cSj_-tiJU0iEIxF-65" value="" style="verticalLabelPosition=bottom;shadow=0;dashed=0;align=center;html=1;verticalAlign=top;strokeWidth=1;shape=mxgraph.mockup.graphics.simpleIcon;strokeColor=#999999;" vertex="1" parent="A1t0_cSj_-tiJU0iEIxF-57">
          <mxGeometry x="40" y="110" width="240" height="50" as="geometry" />
        </mxCell>
        <mxCell id="A1t0_cSj_-tiJU0iEIxF-66" value="Logo" style="text;html=1;strokeColor=none;fillColor=none;align=center;verticalAlign=middle;whiteSpace=wrap;rounded=0;" vertex="1" parent="A1t0_cSj_-tiJU0iEIxF-57">
          <mxGeometry x="130" y="107.5" width="60" height="30" as="geometry" />
        </mxCell>
        <mxCell id="A1t0_cSj_-tiJU0iEIxF-67" value="" style="rounded=0;whiteSpace=wrap;html=1;fillColor=#647687;fontColor=#ffffff;strokeColor=#314354;" vertex="1" parent="A1t0_cSj_-tiJU0iEIxF-57">
          <mxGeometry y="445" width="770" height="40" as="geometry" />
        </mxCell>
        <mxCell id="A1t0_cSj_-tiJU0iEIxF-68" value="Footer" style="text;html=1;strokeColor=none;fillColor=none;align=center;verticalAlign=middle;whiteSpace=wrap;rounded=0;" vertex="1" parent="A1t0_cSj_-tiJU0iEIxF-57">
          <mxGeometry x="340" y="415" width="60" height="30" as="geometry" />
        </mxCell>
        <mxCell id="A1t0_cSj_-tiJU0iEIxF-79" value="" style="verticalLabelPosition=bottom;shadow=0;dashed=0;align=center;html=1;verticalAlign=top;strokeWidth=1;shape=mxgraph.mockup.navigation.scrollBar;strokeColor=#999999;barPos=20;fillColor2=#99ddff;strokeColor2=none;direction=north;" vertex="1" parent="A1t0_cSj_-tiJU0iEIxF-57">
          <mxGeometry x="730" y="170" width="20" height="200" as="geometry" />
        </mxCell>
        <mxCell id="A1t0_cSj_-tiJU0iEIxF-91" value="" style="strokeWidth=1;shadow=0;dashed=0;align=center;html=1;shape=mxgraph.mockup.forms.rrect;fillColor=#ffffff;rSize=0;fontColor=#666666;align=left;spacingLeft=3;strokeColor=#999999;" vertex="1" parent="A1t0_cSj_-tiJU0iEIxF-57">
          <mxGeometry x="230" y="310" width="350" height="18" as="geometry" />
        </mxCell>
        <mxCell id="A1t0_cSj_-tiJU0iEIxF-78" value="" style="rounded=1;whiteSpace=wrap;html=1;" vertex="1" parent="A1t0_cSj_-tiJU0iEIxF-57">
          <mxGeometry x="120" y="180" width="550" height="260" as="geometry" />
        </mxCell>
        <mxCell id="A1t0_cSj_-tiJU0iEIxF-93" value="john@jgraph.com" style="strokeWidth=1;shadow=0;dashed=0;align=center;html=1;shape=mxgraph.mockup.forms.rrect;fillColor=#ffffff;rSize=0;fontColor=#666666;align=left;spacingLeft=3;strokeColor=#999999;" vertex="1" parent="A1t0_cSj_-tiJU0iEIxF-57">
          <mxGeometry x="202.5" y="310" width="350" height="18" as="geometry" />
        </mxCell>
        <mxCell id="A1t0_cSj_-tiJU0iEIxF-94" value="epteur sint occaecat cupidatat non proident, sunt in culpa qui officia deserunt mollit anim id est laborum." style="strokeWidth=1;shadow=0;dashed=0;align=center;html=1;shape=mxgraph.mockup.forms.rrect;fillColor=#ffffff;rSize=0;fontColor=#666666;align=left;spacingLeft=3;strokeColor=#999999;verticalAlign=top;whiteSpace=wrap;" vertex="1" parent="A1t0_cSj_-tiJU0iEIxF-57">
          <mxGeometry x="202.5" y="340" width="357.5" height="90" as="geometry" />
        </mxCell>
        <mxCell id="A1t0_cSj_-tiJU0iEIxF-85" value="john" style="strokeWidth=1;shadow=0;dashed=0;align=center;html=1;shape=mxgraph.mockup.forms.rrect;fillColor=#ffffff;rSize=0;fontColor=#666666;align=left;spacingLeft=3;strokeColor=#999999;" vertex="1" parent="A1t0_cSj_-tiJU0iEIxF-57">
          <mxGeometry x="202.5" y="275" width="350" height="18" as="geometry" />
        </mxCell>
        <mxCell id="A1t0_cSj_-tiJU0iEIxF-80" value="Link" style="shape=rectangle;strokeColor=none;fillColor=none;linkText=;fontSize=17;fontColor=#0000ff;fontStyle=4;html=1;align=center;" vertex="1" parent="1">
          <mxGeometry x="173" y="-220" width="150" height="30" as="geometry" />
        </mxCell>
        <mxCell id="A1t0_cSj_-tiJU0iEIxF-81" value="Link" style="shape=rectangle;strokeColor=none;fillColor=none;linkText=;fontSize=17;fontColor=#0000ff;fontStyle=4;html=1;align=center;" vertex="1" parent="1">
          <mxGeometry x="350.5" y="-220" width="150" height="30" as="geometry" />
        </mxCell>
        <mxCell id="A1t0_cSj_-tiJU0iEIxF-82" value="Link" style="shape=rectangle;strokeColor=none;fillColor=none;linkText=;fontSize=17;fontColor=#0000ff;fontStyle=4;html=1;align=center;" vertex="1" parent="1">
          <mxGeometry x="510" y="-220" width="150" height="30" as="geometry" />
        </mxCell>
        <mxCell id="A1t0_cSj_-tiJU0iEIxF-83" value="Lorem ipsum dolor sit amet, consectetur adipisicing elit, sed do eiusmod tempor incididunt ut labore et dolore magna aliqua. Ut enim ad minim veniam, quis nostrud&amp;nbsp;pariatur?" style="text;spacingTop=-5;whiteSpace=wrap;html=1;align=left;fontSize=11;fontFamily=Helvetica;fillColor=none;strokeColor=none;" vertex="1" parent="1">
          <mxGeometry x="200" y="-250" width="480" height="30" as="geometry" />
        </mxCell>
      </root>
    </mxGraphModel>
  </diagram>
</mxfile>
